#define ocha_width 64
#define ocha_height 64
#define ocha_x_hot 30
#define ocha_y_hot 23
static char ocha_bits[] = {
   0x00, 0x00, 0x00, 0x00, 0x00, 0x00, 0x00, 0x00, 0x00, 0x00, 0x00, 0x00,
   0x00, 0x00, 0x00, 0x00, 0x00, 0x00, 0x00, 0x00, 0x00, 0x00, 0x00, 0x00,
   0x00, 0x00, 0x00, 0x00, 0x00, 0x00, 0x00, 0x00, 0x00, 0x00, 0x00, 0x00,
   0x00, 0x00, 0x00, 0x00, 0x00, 0x00, 0x00, 0x00, 0x00, 0x00, 0x00, 0x00,
   0x00, 0x00, 0x90, 0x04, 0x00, 0x00, 0x00, 0x00, 0x00, 0x00, 0x48, 0x02,
   0x00, 0x00, 0x00, 0x00, 0x00, 0x00, 0x90, 0x04, 0x00, 0x00, 0x00, 0x00,
   0x00, 0x00, 0x00, 0x00, 0x00, 0x00, 0x00, 0x00, 0x00, 0x00, 0xc0, 0x01,
   0x00, 0x00, 0x00, 0x00, 0x00, 0x00, 0x20, 0xc2, 0x03, 0x00, 0x00, 0x00,
   0x00, 0x00, 0x10, 0x3c, 0x1c, 0x00, 0x00, 0x00, 0x00, 0x00, 0xd0, 0x05,
   0xe0, 0x00, 0x00, 0x00, 0x00, 0x00, 0x10, 0x04, 0x00, 0x07, 0x00, 0x00,
   0x00, 0x00, 0x18, 0x05, 0x00, 0x38, 0x00, 0x00, 0x00, 0x00, 0x17, 0x05,
   0x00, 0xc0, 0x01, 0x00, 0x00, 0xe0, 0x10, 0x04, 0x00, 0x00, 0x0e, 0x00,
   0x00, 0x18, 0x10, 0x05, 0x00, 0x00, 0x30, 0x00, 0x00, 0x28, 0x20, 0x02,
   0x00, 0x00, 0x38, 0x00, 0x00, 0xcc, 0xc1, 0x01, 0x00, 0x00, 0x66, 0x00,
   0x00, 0x1f, 0x06, 0x00, 0x00, 0xc0, 0xf1, 0x00, 0x80, 0xfe, 0x38, 0x00,
   0x00, 0x30, 0xcc, 0x00, 0x80, 0x66, 0xc3, 0x01, 0x00, 0x8e, 0xe7, 0x01,
   0x40, 0x33, 0x1f, 0x0e, 0xc0, 0x61, 0x33, 0x01, 0xc0, 0x99, 0xf9, 0x30,
   0x30, 0x9c, 0x99, 0x01, 0xc0, 0xcc, 0xcc, 0xc7, 0x0d, 0xcf, 0xcc, 0x03,
   0x60, 0x66, 0x66, 0x1e, 0xe2, 0x66, 0x66, 0x02, 0x20, 0x33, 0x33, 0xfb,
   0x38, 0x33, 0x33, 0x07, 0xa0, 0x99, 0x99, 0x99, 0x9f, 0x99, 0x99, 0x05,
   0xd0, 0xcc, 0xcc, 0xcc, 0xcc, 0xcc, 0xcc, 0x0c, 0x70, 0x66, 0x66, 0x66,
   0x66, 0x66, 0x66, 0x0e, 0x38, 0x33, 0x33, 0x33, 0x33, 0x33, 0x33, 0x1b,
   0x98, 0x99, 0x99, 0x99, 0x99, 0x99, 0x99, 0x39, 0xcc, 0xcc, 0xcc, 0xcc,
   0xcc, 0xcc, 0xcc, 0x2c, 0x66, 0x66, 0x66, 0x66, 0x66, 0x66, 0x66, 0x66,
   0x36, 0x33, 0x33, 0x33, 0x33, 0x33, 0x33, 0x73, 0x9c, 0x99, 0x99, 0x99,
   0x99, 0x99, 0x99, 0x39, 0xf0, 0xcc, 0xcc, 0xcc, 0xcc, 0xcc, 0xcc, 0x1e,
   0xc0, 0x67, 0x66, 0x66, 0x66, 0x66, 0xe6, 0x03, 0x00, 0x33, 0x33, 0x33,
   0x33, 0x33, 0xf3, 0x00, 0x00, 0x9e, 0x99, 0x99, 0x99, 0x99, 0x39, 0x00,
   0x00, 0xc8, 0xcc, 0xcc, 0xcc, 0xcc, 0x0c, 0x00, 0x00, 0xf8, 0x66, 0x66,
   0x66, 0xe6, 0x07, 0x00, 0x00, 0x80, 0x3f, 0x33, 0x33, 0x73, 0x00, 0x00,
   0x00, 0x00, 0x90, 0x99, 0x99, 0x1d, 0x00, 0x00, 0x00, 0x00, 0xe0, 0xcc,
   0xcc, 0x07, 0x00, 0x00, 0x00, 0x00, 0x80, 0x67, 0xe6, 0x00, 0x00, 0x00,
   0x00, 0x00, 0x00, 0x3e, 0x73, 0x00, 0x00, 0x00, 0x00, 0x00, 0x00, 0xb0,
   0x19, 0x00, 0x00, 0x00, 0x00, 0x00, 0x00, 0xe0, 0x06, 0x00, 0x00, 0x00,
   0x00, 0x00, 0x00, 0xc0, 0x03, 0x00, 0x00, 0x00, 0x00, 0x00, 0x00, 0x00,
   0x00, 0x00, 0x00, 0x00, 0x00, 0x00, 0x00, 0x00, 0x00, 0x00, 0x00, 0x00,
   0x00, 0x00, 0x00, 0x00, 0x00, 0x00, 0x00, 0x00, 0x00, 0x00, 0x00, 0x00,
   0x00, 0x00, 0x00, 0x00, 0x00, 0x00, 0x00, 0x00, 0x00, 0x00, 0x00, 0x00,
   0x00, 0x00, 0x00, 0x00, 0x00, 0x00, 0x00, 0x00, 0x00, 0x00, 0x00, 0x00,
   0x00, 0x00, 0x00, 0x00, 0x00, 0x00, 0x00, 0x00, 0x00, 0x00, 0x00, 0x00,
   0x00, 0x00, 0x00, 0x00, 0x00, 0x00, 0x00, 0x00, 0x00, 0x00, 0x00, 0x00,
   0x00, 0x00, 0x00, 0x00, 0x00, 0x00, 0x00, 0x00, 0x00, 0x00, 0x00, 0x00,
   0x00, 0x00, 0x00, 0x00, 0x00, 0x00, 0x00, 0x00};
