#define akubiR_width 32
#define akubiR_height 32
#define akubiR_x_hot 15
#define akubiR_y_hot 31
static char akubiR_bits[] = {
   0x00, 0x00, 0x00, 0x00, 0x00, 0x00, 0x00, 0x00, 0x00, 0x00, 0x00, 0x00,
   0x00, 0x00, 0x00, 0x00, 0x00, 0x00, 0x00, 0x00, 0x00, 0x00, 0x00, 0x00,
   0x00, 0x00, 0x00, 0x00, 0x00, 0x00, 0x00, 0x00, 0x00, 0x00, 0x80, 0x01,
   0x00, 0x00, 0x60, 0x01, 0x00, 0x00, 0x10, 0x01, 0x00, 0x00, 0x08, 0x01,
   0x00, 0x00, 0x04, 0x03, 0x00, 0x00, 0x02, 0x04, 0x00, 0x00, 0x01, 0x08,
   0x00, 0x00, 0x01, 0x10, 0x00, 0xe0, 0x60, 0x10, 0x00, 0x98, 0x80, 0x13,
   0x00, 0x86, 0x00, 0x24, 0x00, 0x81, 0x00, 0x20, 0x80, 0x01, 0xe1, 0x27,
   0x80, 0x00, 0x00, 0x20, 0x40, 0x00, 0x00, 0x10, 0x40, 0x00, 0x00, 0x2f,
   0x40, 0x00, 0x00, 0x40, 0x40, 0x00, 0x00, 0x50, 0x40, 0x80, 0x21, 0x51,
   0x80, 0x00, 0xce, 0x4c, 0x00, 0x3f, 0xf0, 0x64, 0x00, 0xe0, 0x9f, 0x3f,
   0x00, 0x00, 0x00, 0x00, 0x00, 0x00, 0x00, 0x00};
