#define akubiL_width 32
#define akubiL_height 32
#define akubiL_x_hot 15
#define akubiL_y_hot 31
static char akubiL_bits[] = {
   0x00, 0x00, 0x00, 0x00, 0x00, 0x00, 0x00, 0x00, 0x00, 0x00, 0x00, 0x00,
   0x00, 0x00, 0x00, 0x00, 0x00, 0x00, 0x00, 0x00, 0x00, 0x00, 0x00, 0x00,
   0x00, 0x00, 0x00, 0x00, 0x00, 0x00, 0x00, 0x00, 0x00, 0x00, 0x08, 0x00,
   0x00, 0x00, 0x38, 0x00, 0x00, 0x00, 0x48, 0x00, 0x00, 0x00, 0x88, 0x00,
   0x00, 0x00, 0x0c, 0x01, 0x00, 0x00, 0x02, 0x02, 0x00, 0x00, 0x01, 0x04,
   0x00, 0x80, 0x00, 0x04, 0x00, 0xe0, 0x30, 0x08, 0x00, 0x98, 0x0c, 0x08,
   0x00, 0x46, 0x02, 0x10, 0x00, 0x41, 0x00, 0x20, 0x80, 0x41, 0x3e, 0x20,
   0x80, 0x40, 0x00, 0x20, 0x40, 0x80, 0x00, 0x20, 0x40, 0x00, 0x1f, 0x40,
   0x40, 0x00, 0x00, 0x40, 0x40, 0x00, 0x00, 0x50, 0x40, 0x80, 0x21, 0x51,
   0x80, 0x00, 0xce, 0x4c, 0x00, 0x3f, 0xf0, 0x64, 0x00, 0xe0, 0x9f, 0x3f,
   0x00, 0x00, 0x00, 0x00, 0x00, 0x00, 0x00, 0x00};
