#define akubi1_width 32
#define akubi1_height 32
#define akubi1_x_hot 15
#define akubi1_y_hot 31
static char akubi1_bits[] = {
   0x00, 0x00, 0x00, 0x00, 0x00, 0x00, 0x00, 0x00, 0x00, 0x00, 0x00, 0x00,
   0x00, 0x00, 0x00, 0x00, 0x00, 0x00, 0x00, 0x00, 0x00, 0x00, 0x00, 0x00,
   0x00, 0x00, 0x00, 0x00, 0x00, 0x00, 0x00, 0x00, 0x00, 0x00, 0x00, 0x00,
   0x00, 0x00, 0x01, 0x04, 0x00, 0x80, 0x02, 0x0a, 0x00, 0x80, 0x04, 0x09,
   0x00, 0x40, 0x88, 0x10, 0x00, 0x40, 0x50, 0x10, 0x00, 0x20, 0x20, 0x20,
   0x00, 0x20, 0x00, 0x20, 0x00, 0xa0, 0x01, 0x2c, 0x00, 0x38, 0x06, 0x23,
   0x00, 0x26, 0x88, 0x20, 0x00, 0x21, 0x00, 0x20, 0x80, 0xa1, 0x27, 0x2f,
   0x80, 0x40, 0x00, 0x10, 0x40, 0x80, 0x00, 0x28, 0x40, 0x00, 0xff, 0x47,
   0x40, 0x00, 0x00, 0x40, 0x40, 0x00, 0x00, 0x50, 0x40, 0x80, 0x21, 0x51,
   0x80, 0x00, 0xce, 0x4c, 0x00, 0x3f, 0xf0, 0x64, 0x00, 0xe0, 0x9f, 0x3f,
   0x00, 0x00, 0x00, 0x00, 0x00, 0x00, 0x00, 0x00};
