#define mati1_width 32
#define mati1_height 32
#define mati1_x_hot 15
#define mati1_y_hot 31
static char mati1_bits[] = {
   0x00, 0x00, 0x00, 0x00, 0x00, 0x00, 0x00, 0x00, 0x00, 0x00, 0x00, 0x00,
   0x00, 0x10, 0x10, 0x00, 0x00, 0x28, 0x28, 0x00, 0x00, 0x48, 0x24, 0x00,
   0x00, 0x44, 0x44, 0x00, 0x00, 0x84, 0x42, 0x00, 0x00, 0x82, 0x83, 0x00,
   0x00, 0x02, 0x80, 0x00, 0x00, 0x22, 0x88, 0x00, 0x00, 0x22, 0x88, 0x00,
   0x00, 0x22, 0x88, 0x00, 0x00, 0x02, 0x80, 0x00, 0x00, 0x3a, 0xb9, 0x00,
   0x00, 0x04, 0x40, 0x00, 0x00, 0x08, 0xe0, 0x01, 0x00, 0x70, 0x5c, 0x02,
   0x00, 0x40, 0x24, 0x02, 0x00, 0x20, 0x38, 0x02, 0x00, 0x10, 0x00, 0x01,
   0x00, 0x08, 0x80, 0x00, 0x00, 0x0b, 0x80, 0x01, 0x80, 0x0c, 0x61, 0x02,
   0x40, 0x18, 0x01, 0x04, 0x40, 0x10, 0x01, 0x04, 0xc0, 0x11, 0x11, 0x7f,
   0x60, 0x90, 0x1f, 0x84, 0xe0, 0xff, 0xf0, 0x7f, 0x00, 0x00, 0x00, 0x00,
   0x00, 0x00, 0x00, 0x00, 0x00, 0x00, 0x00, 0x00};
