#define akubi2_width 32
#define akubi2_height 32
#define akubi2_x_hot 15
#define akubi2_y_hot 31
static char akubi2_bits[] = {
   0x00, 0x00, 0x00, 0x00, 0x00, 0x00, 0x00, 0x00, 0x00, 0x00, 0x00, 0x00,
   0x00, 0x00, 0x00, 0x00, 0x00, 0x00, 0x00, 0x00, 0x00, 0x00, 0x00, 0x00,
   0x00, 0x00, 0x00, 0x00, 0x00, 0x00, 0x00, 0x00, 0x00, 0x00, 0x00, 0x00,
   0x00, 0x00, 0x00, 0x00, 0x00, 0x00, 0x03, 0x06, 0x00, 0x00, 0x07, 0x07,
   0x00, 0x80, 0x88, 0x08, 0x00, 0x80, 0xfc, 0x09, 0x00, 0x40, 0x70, 0x10,
   0x00, 0x40, 0x07, 0x17, 0x00, 0x40, 0x88, 0x10, 0x00, 0x78, 0x72, 0x12,
   0x00, 0x4e, 0x89, 0x14, 0x00, 0xc9, 0x88, 0x18, 0x80, 0x55, 0x88, 0x10,
   0x80, 0x92, 0x88, 0x18, 0x40, 0x2a, 0x71, 0x24, 0x40, 0x29, 0xfe, 0x47,
   0x40, 0x05, 0x00, 0x40, 0x40, 0x04, 0x00, 0x50, 0x40, 0x80, 0x21, 0x71,
   0x80, 0x80, 0xce, 0x5e, 0x00, 0xbf, 0xf2, 0x64, 0x00, 0xe0, 0x9f, 0x3f,
   0x00, 0x00, 0x00, 0x00, 0x00, 0x00, 0x00, 0x00};
