#define inleft2_width 32
#define inleft2_height 32
#define inleft2_x_hot 0
#define inleft2_y_hot 0
static char inleft2_bits[] = {
   0x00, 0x00, 0x00, 0x00, 0x00, 0x00, 0x00, 0x00, 0x00, 0x00, 0x00, 0x00,
   0x00, 0x00, 0x00, 0x00, 0x00, 0x00, 0x00, 0x00, 0x00, 0x00, 0x00, 0x00,
   0x00, 0x00, 0x00, 0x00, 0x00, 0x00, 0x00, 0x00, 0x00, 0x00, 0x3e, 0x00,
   0x00, 0x00, 0xc4, 0x01, 0x00, 0x00, 0x23, 0x02, 0x00, 0x00, 0x10, 0x06,
   0x00, 0x00, 0x0c, 0x09, 0x00, 0x00, 0xc0, 0x08, 0x00, 0x00, 0x00, 0x18,
   0x00, 0x00, 0x78, 0x26, 0x00, 0x00, 0x04, 0x21, 0x00, 0x00, 0x02, 0x38,
   0x00, 0x00, 0x02, 0x24, 0x00, 0x00, 0x02, 0x30, 0x00, 0xe8, 0x04, 0x30,
   0x00, 0x30, 0x07, 0x20, 0x00, 0x60, 0xc0, 0x64, 0x00, 0x80, 0x43, 0x4f,
   0x00, 0x00, 0x5c, 0x9a, 0x00, 0x00, 0xf0, 0x93, 0x00, 0x00, 0x00, 0x60,
   0x00, 0x00, 0x00, 0x00, 0x00, 0x00, 0x00, 0x00, 0x00, 0x00, 0x00, 0x00,
   0x00, 0x00, 0x00, 0x00, 0x00, 0x00, 0x00, 0x00};
