#define inright2_width 32
#define inright2_height 32
#define inright2_x_hot 31
#define inright2_y_hot 0
static char inright2_bits[] = {
   0x00, 0x00, 0x00, 0x00, 0x00, 0x00, 0x00, 0x00, 0x00, 0x00, 0x00, 0x00,
   0x00, 0x00, 0x00, 0x00, 0x00, 0x00, 0x00, 0x00, 0x00, 0x00, 0x00, 0x00,
   0x00, 0x00, 0x00, 0x00, 0x00, 0x00, 0x00, 0x00, 0x00, 0x7c, 0x00, 0x00,
   0x80, 0x23, 0x00, 0x00, 0x40, 0xc4, 0x00, 0x00, 0x60, 0x08, 0x00, 0x00,
   0x90, 0x30, 0x00, 0x00, 0x10, 0x03, 0x00, 0x00, 0x18, 0x00, 0x00, 0x00,
   0x64, 0x1e, 0x00, 0x00, 0x84, 0x20, 0x00, 0x00, 0x1c, 0x40, 0x00, 0x00,
   0x24, 0x40, 0x00, 0x00, 0x0c, 0x40, 0x00, 0x00, 0x0c, 0x20, 0x17, 0x00,
   0x04, 0xe0, 0x0c, 0x00, 0x26, 0x03, 0x06, 0x00, 0xf2, 0xc2, 0x01, 0x00,
   0x59, 0x3a, 0x00, 0x00, 0xc9, 0x0f, 0x00, 0x00, 0x06, 0x00, 0x00, 0x00,
   0x00, 0x00, 0x00, 0x00, 0x00, 0x00, 0x00, 0x00, 0x00, 0x00, 0x00, 0x00,
   0x00, 0x00, 0x00, 0x00, 0x00, 0x00, 0x00, 0x00};
